<?xml version="1.0" encoding="UTF-8"?>
<svg xmlns="http://www.w3.org/2000/svg" version="1.1" viewBox="0 0 1883.69 389.08">
  <!-- Generator: Adobe Illustrator 30.5.1, SVG Export Plug-In . SVG Version: 2.1.4 Build 3)  -->
  <defs>
    <style>
      .st0 {
        fill: #263d61;
      }

      .st1 {
        fill: #c7ddff;
      }

      .st2 {
        fill: #cce0ff;
      }

      .st3 {
        fill: #58606e;
      }

      .st4 {
        display: none;
      }

      .st5 {
        fill: #b5d2ff;
      }

      .st6 {
        fill: #8fbbff;
      }
    </style>
  </defs>
  <g id="Backup" class="st4">
    <g>
      <g id="_x3C_Repetição_radial_x3E_">
        <path class="st2" d="M85.68,247.73h5.53c20.92,0,37.9,16.98,37.9,37.9h-39.63c-2.1,0-3.8-1.7-3.8-3.8v-34.1h0Z" transform="translate(-158.68 375.57) rotate(-90.32)"/>
        <path class="st2" d="M129.88,244.86h22.81c0,8.91-7.24,16.15-16.15,16.15h-6.66v-16.15h0Z"/>
      </g>
      <g id="_x3C_Repetição_radial_x3E_1" data-name="_x3C_Repetição_radial_x3E_">
        <path class="st2" d="M44.56,207.38h5.53c20.92,0,37.9,16.98,37.9,37.9h-39.63c-2.1,0-3.8-1.7-3.8-3.8v-34.1h0Z" transform="translate(-1.26 .37) rotate(-.32)"/>
        <path class="st2" d="M68.62,252.15h22.81c0,8.91-7.24,16.15-16.15,16.15h-6.66v-16.15h0Z" transform="translate(340.25 180.2) rotate(90)"/>
      </g>
      <g id="_x3C_Repetição_radial_x3E_2" data-name="_x3C_Repetição_radial_x3E_">
        <path class="st2" d="M84.91,166.26h5.53c20.92,0,37.9,16.98,37.9,37.9h-39.63c-2.1,0-3.8-1.7-3.8-3.8v-34.1h0Z" transform="translate(291.24 77.56) rotate(89.68)"/>
        <path class="st2" d="M61.33,190.89h22.81c0,8.91-7.24,16.15-16.15,16.15h-6.66v-16.15h0Z" transform="translate(145.47 397.92) rotate(-180)"/>
      </g>
      <g id="_x3C_Repetição_radial_x3E_3" data-name="_x3C_Repetição_radial_x3E_">
        <path class="st2" d="M126.03,206.61h5.53c20.92,0,37.9,16.98,37.9,37.9h-39.63c-2.1,0-3.8-1.7-3.8-3.8v-34.1h0Z" transform="translate(296.75 450.29) rotate(179.68)"/>
        <path class="st2" d="M122.59,183.6h22.81c0,8.91-7.24,16.15-16.15,16.15h-6.66v-16.15h0Z" transform="translate(-57.68 325.67) rotate(-90)"/>
      </g>
    </g>
    <g>
      <g id="_x3C_Repetição_radial_x3E_4" data-name="_x3C_Repetição_radial_x3E_">
        <path class="st2" d="M61.1,227.9h21.36c20.92,0,37.9,16.98,37.9,37.9v13.82h-55.47c-2.1,0-3.8-1.7-3.8-3.8v-47.92h0Z" transform="translate(-162.52 345.91) rotate(-90.32)"/>
        <path class="st2" d="M121.41,223.98h31.12v5.89c0,8.91-7.24,16.15-16.15,16.15h-14.98v-22.04h0Z"/>
      </g>
      <g id="_x3C_Repetição_radial_x3E_5" data-name="_x3C_Repetição_radial_x3E_">
        <path class="st2" d="M116.15,171.78h21.36c20.92,0,37.9,16.98,37.9,37.9v13.82h-55.47c-2.1,0-3.8-1.7-3.8-3.8v-47.92h0Z" transform="translate(292.67 394.47) rotate(179.68)"/>
      </g>
    </g>
    <g id="Logo">
      <g>
        <path class="st3" d="M4.68,298.77h27.76v7.3H13.34v10.97h17.94v7.19H13.34v17.86H4.68v-43.32Z"/>
        <path class="st3" d="M62.71,333.61c0,2.21.14,6.16.45,8.48h-7.53c-.25-.98-.44-2.95-.5-3.96-1.36,2.66-4.43,4.53-9.16,4.53-8.09,0-10.96-5.05-10.96-9.99,0-5.89,4.08-10.75,15.43-10.75h3.85v-2.38c0-2.67-.83-4.75-4.67-4.75s-4.72,1.94-5.02,4.35h-8.31c.35-5.17,3.44-10.41,13.47-10.41,7.73,0,12.96,2.66,12.96,10.76v14.11ZM54.57,327.42h-3.98c-5.87,0-6.96,2.39-6.96,4.58s1.33,4.15,4.6,4.15c5.13,0,6.34-3.41,6.34-8.04v-.69Z"/>
        <path class="st3" d="M70.8,320.45c0-5.38,0-8.83-.13-11.08h8.37c.17,1.41.23,3.49.23,5.74,1.1-2.75,3.97-6.24,9.9-6.26v8.69c-6.74-.11-9.79,2.17-9.79,9.69v14.87h-8.59v-21.64Z"/>
        <path class="st3" d="M93.93,319.51c0-6.46-.06-8.64-.13-10.14h8.31c.17,1.09.25,2.65.29,3.88,1.72-2.62,4.6-4.51,9.08-4.51s7.01,2.21,8.16,5.09c1.45-2.6,4.93-5.09,9.79-5.09,5.54,0,10.43,2.94,10.43,11.4v21.95h-8.42v-20.55c0-2.94-1.06-5.78-4.69-5.78-3.96,0-5.59,2.83-5.59,7.7v18.63h-8.42v-20.81c0-2.95-1.38-5.46-4.72-5.46-3.72,0-5.62,2.29-5.62,8.05v18.22h-8.48v-22.58Z"/>
        <path class="st3" d="M154.75,327.67c0,4.02,1.53,8.27,6.39,8.27,3.89,0,5.11-2.42,5.58-3.87h8.42c-1.59,5.43-5.41,10.6-14.26,10.6-10.46,0-14.8-7.13-14.8-16.9,0-8.1,4.06-17.03,15.16-17.03s14.3,7.84,14.3,16.26c0,.45-.06,2.17-.11,2.67h-20.69ZM167.17,322.06c-.13-3.69-1.62-6.87-6.05-6.87-4.88,0-6.09,3.95-6.25,6.87h12.3Z"/>
        <path class="st3" d="M210.37,296.12v36.85c0,3.82.06,7.21.13,9.12h-8.37c-.12-.88-.29-2.8-.29-3.86-1.55,2.85-3.99,4.49-9.19,4.49-8.34,0-12.65-6.81-12.65-16.92s5.27-17.06,14.09-17.06c4.87,0,6.97,1.67,7.7,2.98v-15.6h8.59ZM188.78,325.49c0,6.13,2.06,10.26,6.71,10.26,5.61,0,6.69-3.8,6.69-10.19,0-7-1.4-9.8-6.42-9.8-4.23,0-6.97,3.22-6.97,9.74Z"/>
      </g>
      <g>
        <path class="st6" d="M85.68,247.73h5.53c20.92,0,37.9,16.98,37.9,37.9h-39.63c-2.1,0-3.8-1.7-3.8-3.8v-34.1h0Z" transform="translate(-158.68 375.57) rotate(-90.32)"/>
        <path class="st6" d="M129.88,244.86h22.81c0,8.91-7.24,16.15-16.15,16.15h-6.66v-16.15h0Z"/>
        <path class="st6" d="M126.03,206.61h5.53c20.92,0,37.9,16.98,37.9,37.9h-39.63c-2.1,0-3.8-1.7-3.8-3.8v-34.1h0Z" transform="translate(296.75 450.29) rotate(179.68)"/>
      </g>
      <g>
        <path class="st5" d="M44.56,207.38h5.53c20.92,0,37.9,16.98,37.9,37.9h-39.63c-2.1,0-3.8-1.7-3.8-3.8v-34.1h0Z" transform="translate(-1.26 .37) rotate(-.32)"/>
        <path class="st5" d="M68.62,252.15h22.81c0,8.91-7.24,16.15-16.15,16.15h-6.66v-16.15h0Z" transform="translate(340.25 180.2) rotate(90)"/>
        <path class="st5" d="M84.91,166.26h5.53c20.92,0,37.9,16.98,37.9,37.9h-39.63c-2.1,0-3.8-1.7-3.8-3.8v-34.1h0Z" transform="translate(291.24 77.56) rotate(89.68)"/>
        <path class="st5" d="M61.33,190.89h22.81c0,8.91-7.24,16.15-16.15,16.15h-6.66v-16.15h0Z" transform="translate(145.47 397.92) rotate(-180)"/>
        <path class="st5" d="M122.59,183.6h22.81c0,8.91-7.24,16.15-16.15,16.15h-6.66v-16.15h0Z" transform="translate(-57.68 325.67) rotate(-90)"/>
      </g>
    </g>
  </g>
  <g id="Camada_1">
    <g>
      <g>
        <path class="st0" d="M1245.83,128.53h66.86v13.45h-50.84v41.26h46.97v13.26h-46.97v56.18h-16.02v-124.14Z"/>
        <path class="st0" d="M1384.33,252.67l-1.29-11.24h-.55c-4.97,7-14.55,13.26-27.26,13.26-18.05,0-27.26-12.71-27.26-25.6,0-21.55,19.16-33.34,53.6-33.15v-1.84c0-7.37-2.03-20.63-20.26-20.63-8.29,0-16.95,2.58-23.21,6.63l-3.68-10.68c7.37-4.79,18.05-7.92,29.29-7.92,27.26,0,33.89,18.6,33.89,36.47v33.34c0,7.74.37,15.29,1.47,21.37h-14.74ZM1381.94,207.18c-17.68-.37-37.76,2.76-37.76,20.08,0,10.5,7,15.47,15.29,15.47,11.6,0,18.97-7.37,21.55-14.92.55-1.66.92-3.5.92-5.16v-15.47Z"/>
        <path class="st0" d="M1423.74,191.34c0-10.5-.18-19.52-.74-27.81h14.18l.55,17.5h.74c4.05-11.97,13.81-19.52,24.68-19.52,1.84,0,3.13.18,4.6.55v15.29c-1.66-.37-3.32-.55-5.53-.55-11.42,0-19.52,8.66-21.73,20.81-.37,2.21-.74,4.79-.74,7.55v47.52h-16.02v-61.33Z"/>
        <path class="st0" d="M1483.97,187.65c0-9.21-.18-16.76-.74-24.13h14.18l.74,14.37h.55c4.97-8.47,13.26-16.39,28-16.39,12.16,0,21.37,7.37,25.23,17.87h.37c2.76-4.97,6.26-8.84,9.95-11.6,5.34-4.05,11.24-6.26,19.71-6.26,11.79,0,29.29,7.74,29.29,38.68v52.49h-15.84v-50.47c0-17.13-6.26-27.44-19.34-27.44-9.21,0-16.39,6.82-19.16,14.74-.74,2.21-1.29,5.16-1.29,8.1v55.07h-15.84v-53.42c0-14.18-6.26-24.5-18.6-24.5-10.13,0-17.5,8.1-20.08,16.21-.92,2.39-1.29,5.16-1.29,7.92v53.78h-15.84v-65.02Z"/>
        <path class="st0" d="M1646.6,211.04c.37,21.92,14.37,30.94,30.58,30.94,11.6,0,18.6-2.03,24.68-4.61l2.76,11.6c-5.71,2.58-15.47,5.53-29.65,5.53-27.44,0-43.84-18.05-43.84-44.94s15.84-48.07,41.81-48.07c29.1,0,36.84,25.6,36.84,42,0,3.32-.37,5.89-.55,7.55h-62.62ZM1694.13,199.44c.18-10.31-4.24-26.34-22.47-26.34-16.39,0-23.58,15.1-24.87,26.34h47.34Z"/>
        <path class="st0" d="M1806.84,121.9v107.75c0,7.92.18,16.95.74,23.02h-14.55l-.74-15.47h-.37c-4.97,9.95-15.84,17.5-30.39,17.5-21.55,0-38.13-18.24-38.13-45.31-.18-29.65,18.23-47.89,39.97-47.89,13.63,0,22.84,6.45,26.89,13.63h.37v-53.23h16.21ZM1790.64,199.81c0-2.03-.18-4.79-.74-6.81-2.39-10.32-11.24-18.79-23.39-18.79-16.76,0-26.71,14.74-26.71,34.44,0,18.05,8.84,32.97,26.34,32.97,10.87,0,20.81-7.18,23.76-19.34.55-2.21.74-4.42.74-7v-15.47Z"/>
      </g>
      <g>
        <path class="st0" d="M1667.58,283.28c2.58-.39,5.64-.68,9-.68,6.08,0,10.41,1.41,13.28,4.09,2.92,2.68,4.62,6.47,4.62,11.78s-1.65,9.73-4.72,12.75c-3.07,3.07-8.13,4.72-14.5,4.72-3.02,0-5.55-.15-7.69-.39v-32.26ZM1671.81,312.28c1.07.19,2.63.24,4.28.24,9.05,0,13.97-5.06,13.97-13.92.05-7.74-4.33-12.65-13.29-12.65-2.19,0-3.84.19-4.96.44v25.89Z"/>
        <path class="st0" d="M1699.99,283.28c2.14-.44,5.21-.68,8.13-.68,4.53,0,7.45.83,9.49,2.68,1.65,1.46,2.58,3.7,2.58,6.23,0,4.33-2.73,7.2-6.18,8.37v.15c2.53.88,4.04,3.21,4.82,6.62,1.07,4.57,1.85,7.74,2.53,9h-4.38c-.54-.92-1.27-3.75-2.19-7.83-.97-4.53-2.73-6.23-6.57-6.38h-3.99v14.21h-4.23v-32.36ZM1704.22,298.22h4.33c4.53,0,7.4-2.48,7.4-6.23,0-4.23-3.07-6.08-7.54-6.13-2.04,0-3.5.2-4.18.39v11.97Z"/>
        <path class="st0" d="M1754.2,298.9c0,11.29-6.86,17.27-15.23,17.27s-14.74-6.71-14.74-16.64c0-10.41,6.47-17.23,15.23-17.23s14.74,6.86,14.74,16.59ZM1728.75,299.43c0,7.01,3.79,13.28,10.46,13.28s10.51-6.18,10.51-13.62c0-6.52-3.41-13.33-10.46-13.33s-10.51,6.47-10.51,13.67Z"/>
        <path class="st0" d="M1784.66,314.18c-1.9.68-5.64,1.8-10.07,1.8-4.96,0-9.05-1.27-12.26-4.33-2.82-2.72-4.57-7.1-4.57-12.21.05-9.78,6.76-16.93,17.76-16.93,3.8,0,6.76.83,8.17,1.51l-1.02,3.46c-1.75-.78-3.94-1.41-7.25-1.41-7.98,0-13.19,4.96-13.19,13.19s5.01,13.24,12.65,13.24c2.77,0,4.67-.39,5.64-.88v-9.78h-6.67v-3.41h10.8v15.77Z"/>
        <path class="st0" d="M1796.44,305.32l-3.41,10.32h-4.38l11.14-32.8h5.11l11.19,32.8h-4.53l-3.5-10.32h-11.63ZM1807.19,302.01l-3.21-9.44c-.73-2.14-1.22-4.09-1.7-5.98h-.1c-.49,1.95-1.02,3.94-1.65,5.94l-3.21,9.49h9.88Z"/>
        <path class="st0" d="M1820.92,283.28c2.14-.44,5.21-.68,8.13-.68,4.53,0,7.45.83,9.49,2.68,1.65,1.46,2.58,3.7,2.58,6.23,0,4.33-2.73,7.2-6.18,8.37v.15c2.53.88,4.04,3.21,4.82,6.62,1.07,4.57,1.85,7.74,2.53,9h-4.38c-.54-.92-1.27-3.75-2.19-7.83-.97-4.53-2.73-6.23-6.57-6.38h-3.99v14.21h-4.23v-32.36ZM1825.15,298.22h4.33c4.53,0,7.4-2.48,7.4-6.23,0-4.23-3.07-6.08-7.54-6.13-2.04,0-3.5.2-4.18.39v11.97Z"/>
        <path class="st0" d="M1851.33,282.84v32.8h-4.23v-32.8h4.23Z"/>
        <path class="st0" d="M1864.03,305.32l-3.41,10.32h-4.38l11.14-32.8h5.11l11.19,32.8h-4.53l-3.5-10.32h-11.63ZM1874.79,302.01l-3.21-9.44c-.73-2.14-1.22-4.09-1.7-5.98h-.1c-.49,1.95-1.02,3.94-1.65,5.94l-3.21,9.49h9.88Z"/>
      </g>
    </g>
    <g>
      <g>
        <path class="st6" d="M1024.7,253.35l.69,123.25c.04,6.53-5.23,11.85-11.75,11.88l-106.06.59-.1-17.19c-.36-65.1,52.12-118.17,117.22-118.54h0Z"/>
        <path class="st6" d="M1056.77,303.57h-20.71v-50.22h70.93s0,0,0,0c0,27.73-22.48,50.22-50.22,50.22Z"/>
        <path class="st6" d="M1023.75,134.77l123.25-.69c6.53-.04,11.85,5.23,11.88,11.75l.59,106.06-17.19.1c-65.1.36-118.17-52.12-118.54-117.22h0Z"/>
      </g>
      <g>
        <path class="st1" d="M906.12,254.31l-123.25.69c-6.53.04-11.85-5.23-11.88-11.75l-.59-106.06,17.19-.1c65.1-.36,118.17,52.12,118.54,117.22h0Z"/>
        <path class="st1" d="M855.9,286.38v-20.71h50.22v70.93h0c-27.73,0-50.22-22.48-50.22-50.22Z"/>
        <path class="st1" d="M905.16,135.72l-.69-123.25c-.04-6.53,5.23-11.85,11.75-11.88l106.06-.59.1,17.19c.36,65.1-52.12,118.17-117.22,118.54h0Z"/>
        <path class="st1" d="M873.09,85.51h20.71v50.22h-70.93s0,0,0,0c0-27.73,22.48-50.22,50.22-50.22Z"/>
        <path class="st1" d="M1073.96,102.7v20.71h-50.22V52.48h0c27.73,0,50.22,22.48,50.22,50.22Z"/>
      </g>
    </g>
  </g>
</svg>